<?xml version="1.0" standalone="no"?>
<!DOCTYPE svg PUBLIC "-//W3C//DTD SVG 20010904//EN"
 "http://www.w3.org/TR/2001/REC-SVG-20010904/DTD/svg10.dtd">
<svg version="1.0" xmlns="http://www.w3.org/2000/svg"
 width="420.000000pt" height="420.000000pt" viewBox="0 0 420.000000 420.000000"
 preserveAspectRatio="xMidYMid meet">
<metadata>
Created by potrace 1.14, written by Peter Selinger 2001-2017
</metadata>
<g transform="translate(0.000000,420.000000) scale(0.100000,-0.100000)"
fill="#000000" stroke="none">
<path d="M1922 3477 c-42 -8 -93 -37 -128 -71 -12 -12 -25 -16 -43 -12 -71 17
-141 18 -195 2 -56 -17 -126 -67 -126 -91 0 -21 -29 -38 -73 -42 -81 -8 -173
-67 -184 -119 -3 -14 -4 -20 -17 -65 -4 -15 -23 -35 -44 -47 -78 -44 -106
-104 -89 -190 11 -51 11 -51 -25 -84 -39 -37 -67 -107 -61 -153 2 -16 16 -57
31 -90 24 -52 26 -64 17 -94 -8 -22 -9 -51 -2 -90 5 -31 10 -72 12 -91 1 -19
3 -40 4 -46 0 -6 12 -27 24 -46 13 -19 27 -53 31 -76 5 -37 4 -42 -13 -42 -26
0 -67 -39 -81 -76 -24 -62 -1 -239 45 -350 7 -18 11 -34 9 -37 -2 -2 2 -17 11
-33 8 -16 15 -32 15 -36 0 -5 -29 -8 -64 -8 -56 0 -67 -3 -90 -27 l-28 -27 6
-171 c4 -93 9 -197 11 -230 3 -33 7 -114 10 -180 3 -66 8 -152 10 -191 4 -44
1 -83 -6 -100 -7 -16 -13 -32 -13 -35 -1 -3 -11 -25 -22 -50 -39 -79 -100
-228 -109 -264 -1 -5 -5 -17 -8 -25 -8 -19 -30 -100 -33 -120 -2 -8 -5 -27 -9
-42 l-5 -28 1394 0 1394 0 -10 43 c-5 23 -18 74 -30 112 -11 39 -21 75 -23 80
-1 6 -5 17 -8 25 -73 182 -111 301 -110 350 0 60 13 359 18 430 2 34 16 308
17 340 1 42 -6 65 -28 85 -22 21 -37 25 -85 25 -33 0 -59 1 -59 3 0 1 11 31
24 67 13 36 23 67 24 70 0 3 6 25 13 50 7 25 14 52 16 60 3 8 7 54 10 101 6
100 -10 148 -58 176 -25 15 -29 23 -29 61 0 24 -5 52 -11 63 -8 17 -5 32 19
78 30 58 36 113 18 169 -4 12 -4 22 1 22 14 0 34 39 40 78 16 98 -3 200 -47
247 -18 19 -19 65 -1 65 16 0 11 83 -8 126 -28 61 -71 100 -131 115 -41 10
-51 18 -60 42 -14 41 -58 97 -76 97 -7 0 -14 4 -14 9 0 5 -8 11 -17 15 -123
41 -136 50 -170 109 -19 31 -40 57 -47 57 -6 0 -27 11 -46 25 -18 13 -37 22
-41 20 -4 -3 -10 -1 -13 4 -7 11 -67 7 -91 -7 -14 -7 -32 -2 -74 19 -69 35
-119 41 -189 23 -29 -8 -66 -11 -80 -8 -15 3 -39 8 -54 11 -16 3 -28 10 -28
16 0 6 -2 8 -6 5 -3 -3 -19 -3 -37 1 -18 4 -51 3 -75 -2z"/>
</g>
</svg>
